<?xml version="1.0" encoding="UTF-8" standalone="no"?>
<!-- Created with Inkscape (http://www.inkscape.org/) -->

<svg
   xmlns:dc="http://purl.org/dc/elements/1.1/"
   xmlns:cc="http://creativecommons.org/ns#"
   xmlns:rdf="http://www.w3.org/1999/02/22-rdf-syntax-ns#"
   xmlns:svg="http://www.w3.org/2000/svg"
   xmlns="http://www.w3.org/2000/svg"
   xmlns:sodipodi="http://sodipodi.sourceforge.net/DTD/sodipodi-0.dtd"
   xmlns:inkscape="http://www.inkscape.org/namespaces/inkscape"
   version="1.0"
   width="750.00006"
   height="599.99994"
   viewBox="0 0 750 600" preserveAspectRatio="xMidYMid meet"
   id="svg3978"
   inkscape:version="0.91 r13725"
   sodipodi:docname="Georgia_404.svg">
  <metadata
     id="metadata14">
    <rdf:RDF>
      <cc:Work
         rdf:about="">
        <dc:format>image/svg+xml</dc:format>
        <dc:type
           rdf:resource="http://purl.org/dc/dcmitype/StillImage" />
      </cc:Work>
    </rdf:RDF>
  </metadata>
  <sodipodi:namedview
     pagecolor="#ffffff"
     bordercolor="#666666"
     borderopacity="1"
     objecttolerance="10"
     gridtolerance="10"
     guidetolerance="10"
     inkscape:pageopacity="0"
     inkscape:pageshadow="2"
     inkscape:window-width="1920"
     inkscape:window-height="1058"
     id="namedview12"
     showgrid="false"
     inkscape:zoom="0.38399997"
     inkscape:cx="-549.47921"
     inkscape:cy="299.99997"
     inkscape:window-x="1912"
     inkscape:window-y="66"
     inkscape:window-maximized="1"
     inkscape:current-layer="svg3978" />
  <defs
     id="defs3980" />
  <g
     transform="matrix(0.99995823,0,0,1.0000467,0.01568949,99.9884)"
     id="layer3" />
  <g
     transform="matrix(0.99995823,0,0,1.0000467,0.01568645,-0.01403134)"
     id="g2901">
    <rect
       width="748.68964"
       height="598.63031"
       rx="34.510597"
       ry="27.593618"
       x="0.65518832"
       y="0.68484676"
       id="rect3990"
       style="fill:#000000;fill-opacity:1;stroke:#000000;stroke-width:1.34169149;stroke-opacity:1" />
    <path
       d="m 102.16536,519.28445 c 0,0 -19.271626,-43.68819 -5.912097,-94.58791 C 92.298625,411.00297 77.449401,364.2556 93.310945,318.85632 97.905171,312.15477 80.854969,289.32707 79.75893,280.87436 75.738998,249.87239 55.77361,68.438418 50.95399,51.855904 c 157.38155,-1.114987 424.90407,-0.881592 424.90407,-0.881592 0,0 -3.13569,21.703064 -4.15023,25.646773 -7.47216,29.045685 10.93122,28.419945 17.20961,28.676415 16.17303,0.66063 9.35945,-0.11265 19.91866,2.0764 10.7758,2.98724 8.72483,8.35723 33.51921,33.85223 23.11242,27.08411 37.80117,28.13912 61.24424,50.76072 40.08917,27.84606 104.09009,73.02564 94.4756,100.4384 -27.23094,58.70633 -44.17436,97.76387 -52.618,156.84265 -4.68147,37.61827 -27.09251,78.19894 -52.02857,77.77307 -19.25866,-0.35596 -11.6365,4.18248 -18.90284,12.50062 -4.23794,4.85136 -10.63019,9.46068 -20.50088,9.50333 -9.45184,0.0409 -16.6959,-1.04555 -22.57729,-8.43382 -8.91687,-11.20147 2.69062,-15.01019 -23.24068,-14.22179 -23.5494,0.71602 -399.44016,2.30199 -399.44016,2.30199"
       id="path1356"
       style="fill:#ffffff;fill-opacity:1;fill-rule:evenodd;stroke:#000000;stroke-width:1.90797913px;stroke-linecap:butt;stroke-linejoin:miter;stroke-opacity:1" />
  </g>
  <g
     transform="matrix(0.95973369,0,0,0.95981856,6.47579,5.8643777)"
     id="text2878"
     style="font-style:normal;font-variant:normal;font-weight:normal;font-stretch:normal;font-size:373.13528442px;line-height:125%;font-family:'Roadgeek 2005 Series C';-inkscape-font-specification:'Roadgeek 2005 Series C';text-align:center;writing-mode:lr-tb;text-anchor:middle;fill:#000000;fill-opacity:1;stroke:none">
    <path
       d="m 250.82951,389.53692 0,60.44791 -35.82098,0 0,-60.44791 -103.73161,0 0,-25.3732 103.73161,-164.17953 35.82098,0 0,155.97055 14.92542,0 0,33.58218 -14.92542,0 m -35.82098,-127.23914 -59.70165,93.65696 59.70165,0 0,-93.65696"
       id="path4343"
       style="font-family:'Roadgeek 2005 Series C';-inkscape-font-specification:'Roadgeek 2005 Series C';letter-spacing:-10.27397251"
       inkscape:connector-curvature="0" />
    <path
       d="m 447.6806,324.61138 c -1.7e-4,19.15438 -1.11957,35.44794 -3.35822,48.88072 -1.99021,13.43293 -5.59719,26.11952 -10.82092,38.0598 -6.21907,14.92543 -14.0549,25.87072 -23.50752,32.8359 -9.20413,6.71644 -20.89569,10.07465 -35.07472,10.07466 -14.92549,-1e-5 -27.11457,-3.35822 -36.56726,-10.07466 -9.20405,-6.96518 -16.91551,-17.91047 -23.13438,-32.8359 -5.22393,-12.18904 -8.95528,-24.87562 -11.19406,-38.0598 -1.99008,-13.43278 -2.98511,-29.72634 -2.98508,-48.88072 -3e-5,-18.90538 0.995,-35.07456 2.98508,-48.50759 2.23878,-13.68144 5.97013,-26.4924 11.19406,-38.43293 6.46763,-14.92519 14.30346,-25.62172 23.50752,-32.08964 9.45269,-6.71618 21.51739,-10.0744 36.19412,-10.07465 14.42779,2.5e-4 26.24373,3.35847 35.44785,10.07465 9.20387,6.46792 16.91532,17.41321 23.13439,32.83591 2.48741,6.21912 4.60184,12.43804 6.3433,18.65676 1.98989,6.21911 3.48243,12.81116 4.47762,19.77617 1.24362,6.7166 2.11427,14.05492 2.61195,22.01498 0.49735,7.71161 0.7461,16.29371 0.74627,25.74634 m -34.32844,0 c -1.4e-4,-6.96506 -0.2489,-13.30836 -0.74627,-19.0299 -0.2489,-5.72126 -0.74641,-10.94515 -1.49255,-15.67168 -0.49764,-4.97498 -1.24391,-9.70135 -2.23881,-14.17915 -0.99515,-4.47744 -2.11456,-8.95506 -3.35822,-13.43287 -3.23396,-11.19385 -7.33844,-19.27844 -12.31346,-24.25379 -4.72649,-4.97492 -10.82103,-7.46249 -18.28363,-7.4627 -15.423,2.1e-4 -25.99516,10.32361 -31.7165,30.97022 -2.98514,9.45294 -5.09957,19.03007 -6.3433,28.73142 -0.99508,9.45291 -1.4926,21.14447 -1.49254,35.07472 -6e-5,6.71655 0.12432,12.93547 0.37314,18.65676 0.49745,5.47275 0.99497,10.69664 1.49254,15.67168 0.74621,4.72647 1.61686,9.45285 2.61194,14.17914 0.99497,4.72646 2.11437,9.57721 3.35822,14.55228 5.72134,20.64686 16.2935,30.97026 31.7165,30.97023 7.4626,3e-5 13.55714,-2.48754 18.28363,-7.46271 4.97502,-4.97509 9.0795,-12.81092 12.31346,-23.50752 1.49242,-4.97507 2.7362,-9.70145 3.73136,-14.17914 0.99489,-4.7263 1.74116,-9.57705 2.23881,-14.55228 0.74614,-4.97504 1.24365,-10.19893 1.49254,-15.67168 0.24862,-5.72129 0.373,-12.18897 0.37314,-19.40303"
       id="path4345"
       style="font-family:'Roadgeek 2005 Series C';-inkscape-font-specification:'Roadgeek 2005 Series C';letter-spacing:-10.27397251"
       inkscape:connector-curvature="0" />
    <path
       d="m 607.78954,389.53692 0,60.44791 -35.82099,0 0,-60.44791 -103.73161,0 0,-25.3732 103.73161,-164.17953 35.82099,0 0,155.97055 14.92541,0 0,33.58218 -14.92541,0 m -35.82099,-127.23914 -59.70165,93.65696 59.70165,0 0,-93.65696"
       id="path4347"
       style="font-family:'Roadgeek 2005 Series C';-inkscape-font-specification:'Roadgeek 2005 Series C';letter-spacing:-10.27397251"
       inkscape:connector-curvature="0" />
  </g>
  <g
     style="font-style:normal;font-weight:normal;font-size:56.75961685px;line-height:125%;font-family:sans-serif;letter-spacing:0px;word-spacing:0px;fill:#000000;fill-opacity:1;stroke:none;stroke-width:1px;stroke-linecap:butt;stroke-linejoin:miter;stroke-opacity:1"
     id="text4142">
    <path
       d="m 111.22944,503.74478 5.88881,0 0,-46.54289 -5.88881,0 0,46.54289 z"
       style="font-style:normal;font-variant:normal;font-weight:normal;font-stretch:normal;font-size:70.94952393px;font-family:'Source Sans Pro';-inkscape-font-specification:'Source Sans Pro'"
       id="path4170" />
    <path
       d="m 129.36924,503.74478 5.81786,0 0,-24.97423 c 3.19273,-3.54748 6.10166,-5.32122 8.65584,-5.32122 4.39887,0 6.45641,2.76704 6.45641,9.22344 l 0,21.07201 5.81786,0 0,-24.97423 c 3.19273,-3.54748 5.95976,-5.32122 8.65584,-5.32122 4.32792,0 6.38546,2.76704 6.38546,9.22344 l 0,21.07201 5.81786,0 0,-21.85245 c 0,-8.79774 -3.40558,-13.48041 -10.50053,-13.48041 -4.18602,0 -7.7335,2.69608 -11.35192,6.5983 -1.41899,-4.11507 -4.25697,-6.5983 -9.50724,-6.5983 -4.11507,0 -7.7335,2.55418 -10.71338,5.81786 l -0.21284,0 -0.49665,-4.96647 -4.82457,0 0,34.48147 z"
       style="font-style:normal;font-variant:normal;font-weight:normal;font-stretch:normal;font-size:70.94952393px;font-family:'Source Sans Pro';-inkscape-font-specification:'Source Sans Pro'"
       id="path4172" />
    <path
       d="m 196.07066,504.59618 c 4.32792,0 8.15919,-2.27039 11.42287,-4.96647 l 0.21285,0 0.49665,4.11507 4.82456,0 0,-21.14296 c 0,-8.58489 -3.54747,-14.1899 -11.99047,-14.1899 -5.53406,0 -10.35863,2.41228 -13.55135,4.46982 l 2.27038,4.04412 c 2.69608,-1.84469 6.31451,-3.68937 10.28768,-3.68937 5.67596,0 7.09495,4.25697 7.09495,8.65584 -14.68655,1.63184 -21.14295,5.39216 -21.14295,12.91281 0,6.17261 4.32792,9.79104 10.07483,9.79104 z m 1.70279,-4.68267 c -3.40558,0 -6.10166,-1.63184 -6.10166,-5.53407 0,-4.39887 3.97317,-7.23685 15.46699,-8.65584 l 0,9.57819 c -3.33462,2.97988 -6.03071,4.61172 -9.36533,4.61172 z"
       style="font-style:normal;font-variant:normal;font-weight:normal;font-stretch:normal;font-size:70.94952393px;font-family:'Source Sans Pro';-inkscape-font-specification:'Source Sans Pro'"
       id="path4174" />
    <path
       d="m 235.51194,519.63747 c 10.71338,0 17.45358,-5.53406 17.45358,-11.91952 0,-5.74691 -4.04412,-8.23014 -12.06142,-8.23014 l -6.66925,0 c -4.68267,0 -6.10166,-1.56089 -6.10166,-3.76032 0,-1.91564 0.99329,-3.05083 2.19943,-4.11508 1.56089,0.78045 3.47653,1.20614 5.17932,1.20614 7.024,0 12.62902,-4.61171 12.62902,-11.99046 0,-2.90894 -1.20615,-5.53407 -2.83799,-7.09496 l 7.09496,0 0,-4.46982 -11.99047,0 c -1.27709,-0.49664 -2.97988,-0.85139 -4.89552,-0.85139 -7.024,0 -12.98376,4.75362 -12.98376,12.27427 0,4.11507 2.19943,7.4497 4.46982,9.29438 l 0,0.2838 c -1.77374,1.20614 -3.76033,3.47653 -3.76033,6.38546 0,2.69608 1.34804,4.54077 3.05083,5.60501 l 0,0.2838 c -3.12178,2.12849 -5.03741,4.89552 -5.03741,7.80445 0,5.95976 5.81786,9.29438 14.26085,9.29438 z m 0,-30.72114 c -3.97317,0 -7.3078,-3.19273 -7.3078,-8.23014 0,-5.03742 3.26368,-8.0173 7.3078,-8.0173 4.04412,0 7.3078,2.97988 7.3078,8.0173 0,5.03741 -3.33463,8.23014 -7.3078,8.23014 z m 0.85139,26.67702 c -6.24355,0 -10.00388,-2.34133 -10.00388,-6.03071 0,-1.98658 1.06424,-4.04412 3.54748,-5.81786 1.48994,0.4257 3.12178,0.5676 4.46982,0.5676 l 5.95976,0 c 4.46982,0 6.95305,1.06424 6.95305,4.25697 0,3.61842 -4.32792,7.024 -10.92623,7.024 z"
       style="font-style:normal;font-variant:normal;font-weight:normal;font-stretch:normal;font-size:70.94952393px;font-family:'Source Sans Pro';-inkscape-font-specification:'Source Sans Pro'"
       id="path4176" />
    <path
       d="m 272.63518,504.59618 c 4.68267,0 8.37204,-1.63184 11.35192,-3.54748 l -2.05753,-3.83127 c -2.55418,1.63183 -5.32122,2.69608 -8.58489,2.69608 -6.59831,0 -11.06813,-4.68267 -11.49383,-11.99047 l 23.27145,0 c 0.1419,-0.8514 0.21285,-2.12849 0.21285,-3.33463 0,-9.86198 -4.96647,-16.17649 -13.76421,-16.17649 -7.8754,0 -15.467,6.8821 -15.467,18.16308 0,11.28097 7.3078,18.02118 16.53124,18.02118 z M 261.7799,483.73702 c 0.7095,-6.81116 5.10837,-10.71338 9.93294,-10.71338 5.39216,0 8.51394,3.76032 8.51394,10.71338 l -18.44688,0 z"
       style="font-style:normal;font-variant:normal;font-weight:normal;font-stretch:normal;font-size:70.94952393px;font-family:'Source Sans Pro';-inkscape-font-specification:'Source Sans Pro'"
       id="path4178" />
    <path
       d="m 308.55781,503.74478 5.60502,0 0,-24.33569 c 0,-4.89551 -0.4257,-9.86198 -0.78045,-14.54465 l 0.2838,0 5.03741,9.57819 16.88599,29.30215 6.10166,0 0,-46.54289 -5.60501,0 0,24.05189 c 0,4.89552 0.4257,10.14578 0.70949,14.82845 l -0.28379,0 -5.03742,-9.64913 -16.81504,-29.23121 -6.10166,0 0,46.54289 z"
       style="font-style:normal;font-variant:normal;font-weight:normal;font-stretch:normal;font-size:70.94952393px;font-family:'Source Sans Pro';-inkscape-font-specification:'Source Sans Pro'"
       id="path4180" />
    <path
       d="m 367.26743,504.59618 c 8.44299,0 15.96364,-6.59831 15.96364,-18.02118 0,-11.56478 -7.52065,-18.16308 -15.96364,-18.16308 -8.44299,0 -15.96364,6.5983 -15.96364,18.16308 0,11.42287 7.52065,18.02118 15.96364,18.02118 z m 0,-4.82457 c -5.88881,0 -9.93293,-5.32122 -9.93293,-13.19661 0,-7.94635 4.04412,-13.33851 9.93293,-13.33851 5.95976,0 9.93293,5.39216 9.93293,13.33851 0,7.87539 -3.97317,13.19661 -9.93293,13.19661 z"
       style="font-style:normal;font-variant:normal;font-weight:normal;font-stretch:normal;font-size:70.94952393px;font-family:'Source Sans Pro';-inkscape-font-specification:'Source Sans Pro'"
       id="path4182" />
    <path
       d="m 401.98948,504.59618 c 2.12848,0 4.46982,-0.63855 6.38545,-1.2771 l -1.13519,-4.39887 c -1.13519,0.4257 -2.69608,0.92235 -3.90222,0.92235 -3.97318,0 -5.32122,-2.41229 -5.32122,-6.66926 l 0,-19.15637 9.29439,0 0,-4.75362 -9.29439,0 0,-9.64913 -4.89551,0 -0.7095,9.64913 -5.39216,0.35475 0,4.39887 5.10836,0 0,19.08542 c 0,6.81116 2.48324,11.49383 9.86199,11.49383 z"
       style="font-style:normal;font-variant:normal;font-weight:normal;font-stretch:normal;font-size:70.94952393px;font-family:'Source Sans Pro';-inkscape-font-specification:'Source Sans Pro'"
       id="path4184" />
    <path
       d="m 429.80943,503.74478 5.88881,0 0,-20.85916 17.73738,0 0,-4.96647 -17.73738,0 0,-15.75079 20.93011,0 0,-4.96647 -26.81892,0 0,46.54289 z"
       style="font-style:normal;font-variant:normal;font-weight:normal;font-stretch:normal;font-size:70.94952393px;font-family:'Source Sans Pro';-inkscape-font-specification:'Source Sans Pro'"
       id="path4186" />
    <path
       d="m 476.74031,504.59618 c 8.443,0 15.96365,-6.59831 15.96365,-18.02118 0,-11.56478 -7.52065,-18.16308 -15.96365,-18.16308 -8.44299,0 -15.96364,6.5983 -15.96364,18.16308 0,11.42287 7.52065,18.02118 15.96364,18.02118 z m 0,-4.82457 c -5.88881,0 -9.93293,-5.32122 -9.93293,-13.19661 0,-7.94635 4.04412,-13.33851 9.93293,-13.33851 5.95976,0 9.93294,5.39216 9.93294,13.33851 0,7.87539 -3.97318,13.19661 -9.93294,13.19661 z"
       style="font-style:normal;font-variant:normal;font-weight:normal;font-stretch:normal;font-size:70.94952393px;font-family:'Source Sans Pro';-inkscape-font-specification:'Source Sans Pro'"
       id="path4188" />
    <path
       d="m 511.92906,504.59618 c 4.75362,0 8.1592,-2.48324 11.35193,-6.24356 l 0.21285,0 0.49664,5.39216 4.82457,0 0,-34.48147 -5.81786,0 0,24.47759 c -3.26368,4.04412 -5.74691,5.81786 -9.29439,5.81786 -4.54077,0 -6.45641,-2.76703 -6.45641,-9.22344 l 0,-21.07201 -5.88881,0 0,21.85246 c 0,8.79774 3.26368,13.48041 10.57148,13.48041 z"
       style="font-style:normal;font-variant:normal;font-weight:normal;font-stretch:normal;font-size:70.94952393px;font-family:'Source Sans Pro';-inkscape-font-specification:'Source Sans Pro'"
       id="path4190" />
    <path
       d="m 540.51619,503.74478 5.81786,0 0,-24.97423 c 3.47652,-3.47653 5.88881,-5.32122 9.43628,-5.32122 4.54077,0 6.52736,2.76704 6.52736,9.22344 l 0,21.07201 5.81786,0 0,-21.85245 c 0,-8.79774 -3.26368,-13.48041 -10.50053,-13.48041 -4.75362,0 -8.30109,2.55418 -11.56477,5.81786 l -0.21285,0 -0.49665,-4.96647 -4.82456,0 0,34.48147 z"
       style="font-style:normal;font-variant:normal;font-weight:normal;font-stretch:normal;font-size:70.94952393px;font-family:'Source Sans Pro';-inkscape-font-specification:'Source Sans Pro'"
       id="path4192" />
    <path
       d="m 591.09431,504.59618 c 4.04413,0 7.7335,-2.27039 10.42958,-4.89552 l 0.21285,0 0.49665,4.04412 4.82457,0 0,-50.51606 -5.88881,0 0,13.26756 0.2838,5.88881 c -3.05083,-2.48323 -5.67597,-3.97317 -9.64914,-3.97317 -7.8754,0 -14.97035,6.95305 -14.97035,18.16308 0,11.49382 5.60501,18.02118 14.26085,18.02118 z m 1.2771,-4.89552 c -6.03071,0 -9.50724,-4.96647 -9.50724,-13.19661 0,-7.8754 4.39887,-13.19661 9.93293,-13.19661 2.83798,0 5.46312,0.99329 8.37205,3.61842 l 0,18.02118 c -2.83798,3.19273 -5.60502,4.75362 -8.79774,4.75362 z"
       style="font-style:normal;font-variant:normal;font-weight:normal;font-stretch:normal;font-size:70.94952393px;font-family:'Source Sans Pro';-inkscape-font-specification:'Source Sans Pro'"
       id="path4194" />
  </g>
</svg>
