<svg xmlns="http://www.w3.org/2000/svg" viewBox="0 0 16 200">
    <defs>
        <symbol id="file-icon-text" aria-label="Text File" viewBox="0 0 16 16">
            <path d="M5.5 7a.5.5 0 0 0 0 1h5a.5.5 0 0 0 0-1zM5 9.5a.5.5 0 0 1 .5-.5h5a.5.5 0 0 1 0 1h-5a.5.5 0 0 1-.5-.5m0 2a.5.5 0 0 1 .5-.5h2a.5.5 0 0 1 0 1h-2a.5.5 0 0 1-.5-.5"/>
            <path d="M9.5 0H4a2 2 0 0 0-2 2v12a2 2 0 0 0 2 2h8a2 2 0 0 0 2-2V4.5zm0 1v2A1.5 1.5 0 0 0 11 4.5h2V14a1 1 0 0 1-1 1H4a1 1 0 0 1-1-1V2a1 1 0 0 1 1-1z"/>
        </symbol>
        <symbol id="file-icon-rtf" aria-label="Rich Text File" viewBox="0 0 16 16">
            <path d="M14 4.5V14a2 2 0 0 1-2 2H4a2 2 0 0 1-2-2V2a2 2 0 0 1 2-2h5.5zm-3 0A1.5 1.5 0 0 1 9.5 3V1H4a1 1 0 0 0-1 1v12a1 1 0 0 0 1 1h8a1 1 0 0 0 1-1V4.5z"/>
            <path d="M4.5 12.5A.5.5 0 0 1 5 12h3a.5.5 0 0 1 0 1H5a.5.5 0 0 1-.5-.5m0-2A.5.5 0 0 1 5 10h6a.5.5 0 0 1 0 1H5a.5.5 0 0 1-.5-.5m1.639-3.708 1.33.886 1.854-1.855a.25.25 0 0 1 .289-.047l1.888.974V8.5a.5.5 0 0 1-.5.5H5a.5.5 0 0 1-.5-.5V8s1.54-1.274 1.639-1.208M6.25 6a.75.75 0 1 0 0-1.5.75.75 0 0 0 0 1.5"/>
        </symbol>
        <symbol id="file-icon-csv" aria-label="CSV File" viewBox="0 0 16 16">
            <path d="M14 14V4.5L9.5 0H4a2 2 0 0 0-2 2v12a2 2 0 0 0 2 2h8a2 2 0 0 0 2-2M9.5 3A1.5 1.5 0 0 0 11 4.5h2V9H3V2a1 1 0 0 1 1-1h5.5zM3 12v-2h2v2zm0 1h2v2H4a1 1 0 0 1-1-1zm3 2v-2h7v1a1 1 0 0 1-1 1zm7-3H6v-2h7z"/>
        </symbol>
        <symbol id="file-icon-excel" aria-label="Excel File" viewBox="0 0 16 16">
            <path d="M5.884 6.68a.5.5 0 1 0-.768.64L7.349 10l-2.233 2.68a.5.5 0 0 0 .768.64L8 10.781l2.116 2.54a.5.5 0 0 0 .768-.641L8.651 10l2.233-2.68a.5.5 0 0 0-.768-.64L8 9.219l-2.116-2.54z"/>
            <path d="M14 14V4.5L9.5 0H4a2 2 0 0 0-2 2v12a2 2 0 0 0 2 2h8a2 2 0 0 0 2-2M9.5 3A1.5 1.5 0 0 0 11 4.5h2V14a1 1 0 0 1-1 1H4a1 1 0 0 1-1-1V2a1 1 0 0 1 1-1h5.5z"/>
        </symbol>
        <symbol id="file-icon-word" aria-label="Word File" viewBox="0 0 16 16">
            <path d="M5.485 6.879a.5.5 0 1 0-.97.242l1.5 6a.5.5 0 0 0 .967.01L8 9.402l1.018 3.73a.5.5 0 0 0 .967-.01l1.5-6a.5.5 0 0 0-.97-.242l-1.036 4.144-.997-3.655a.5.5 0 0 0-.964 0l-.997 3.655L5.485 6.88z"/>
            <path d="M14 14V4.5L9.5 0H4a2 2 0 0 0-2 2v12a2 2 0 0 0 2 2h8a2 2 0 0 0 2-2M9.5 3A1.5 1.5 0 0 0 11 4.5h2V14a1 1 0 0 1-1 1H4a1 1 0 0 1-1-1V2a1 1 0 0 1 1-1h5.5z"/>
        </symbol>
        <symbol id="file-icon-pdf" aria-label="PDF File" viewBox="0 0 16 16">
            <path d="M14 14V4.5L9.5 0H4a2 2 0 0 0-2 2v12a2 2 0 0 0 2 2h8a2 2 0 0 0 2-2M9.5 3A1.5 1.5 0 0 0 11 4.5h2V14a1 1 0 0 1-1 1H4a1 1 0 0 1-1-1V2a1 1 0 0 1 1-1h5.5z"/>
            <path d="M4.603 14.087a.8.8 0 0 1-.438-.42c-.195-.388-.13-.776.08-1.102.198-.307.526-.568.897-.787a7.7 7.7 0 0 1 1.482-.645 20 20 0 0 0 1.062-2.227 7.3 7.3 0 0 1-.43-1.295c-.086-.4-.119-.796-.046-1.136.075-.354.274-.672.65-.823.192-.077.4-.12.602-.077a.7.7 0 0 1 .477.365c.088.164.12.356.127.538.007.188-.012.396-.047.614-.084.51-.27 1.134-.52 1.794a11 11 0 0 0 .98 1.686 5.8 5.8 0 0 1 1.334.05c.364.066.734.195.96.465.12.144.193.32.2.518.007.192-.047.382-.138.563a1.04 1.04 0 0 1-.354.416.86.86 0 0 1-.51.138c-.331-.014-.654-.196-.933-.417a5.7 5.7 0 0 1-.911-.95 11.7 11.7 0 0 0-1.997.406 11.3 11.3 0 0 1-1.02 1.51c-.292.35-.609.656-.927.787a.8.8 0 0 1-.58.029m1.379-1.901q-.25.115-.459.238c-.328.194-.541.383-.647.547-.094.145-.096.25-.04.361q.016.032.026.044l.035-.012c.137-.056.355-.235.635-.572a8 8 0 0 0 .45-.606m1.64-1.33a13 13 0 0 1 1.01-.193 12 12 0 0 1-.51-.858 21 21 0 0 1-.5 1.05zm2.446.45q.226.245.435.41c.24.19.407.253.498.256a.1.1 0 0 0 .07-.015.3.3 0 0 0 .094-.125.44.44 0 0 0 .059-.2.1.1 0 0 0-.026-.063c-.052-.062-.2-.152-.518-.209a4 4 0 0 0-.612-.053zM8.078 7.8a7 7 0 0 0 .2-.828q.046-.282.038-.465a.6.6 0 0 0-.032-.198.5.5 0 0 0-.145.04c-.087.035-.158.106-.196.283-.04.192-.03.469.046.822q.036.167.09.346z"/>
        </symbol>
        <symbol id="file-icon-image" aria-label="Image File" viewBox="0 0 16 16">
            <path d="M6.502 7a1.5 1.5 0 1 0 0-3 1.5 1.5 0 0 0 0 3"/>
            <path d="M14 14a2 2 0 0 1-2 2H4a2 2 0 0 1-2-2V2a2 2 0 0 1 2-2h5.5L14 4.5zM4 1a1 1 0 0 0-1 1v10l2.224-2.224a.5.5 0 0 1 .61-.075L8 11l2.157-3.02a.5.5 0 0 1 .76-.063L13 10V4.5h-2A1.5 1.5 0 0 1 9.5 3V1z"/>
        </symbol>
        <symbol id="file-icon-html" aria-label="HTML File" viewBox="0 0 16 16">
            <path d="M14 4.5V14a2 2 0 0 1-2 2H4a2 2 0 0 1-2-2V2a2 2 0 0 1 2-2h5.5zm-3 0A1.5 1.5 0 0 1 9.5 3V1H4a1 1 0 0 0-1 1v12a1 1 0 0 0 1 1h8a1 1 0 0 0 1-1V4.5z"/>
            <path d="M8.646 6.646a.5.5 0 0 1 .708 0l2 2a.5.5 0 0 1 0 .708l-2 2a.5.5 0 0 1-.708-.708L10.293 9 8.646 7.354a.5.5 0 0 1 0-.708m-1.292 0a.5.5 0 0 0-.708 0l-2 2a.5.5 0 0 0 0 .708l2 2a.5.5 0 0 0 .708-.708L5.707 9l1.647-1.646a.5.5 0 0 0 0-.708"/>
        </symbol>
        <symbol id="file-icon-powerpoint" aria-label="Powerpoint File" viewBox="0 0 16 16">
            <path d="M7 5.5a1 1 0 0 0-1 1V13a.5.5 0 0 0 1 0v-2h1.188a2.75 2.75 0 0 0 0-5.5zM8.188 10H7V6.5h1.188a1.75 1.75 0 1 1 0 3.5"/>
            <path d="M14 4.5V14a2 2 0 0 1-2 2H4a2 2 0 0 1-2-2V2a2 2 0 0 1 2-2h5.5zm-3 0A1.5 1.5 0 0 1 9.5 3V1H4a1 1 0 0 0-1 1v12a1 1 0 0 0 1 1h8a1 1 0 0 0 1-1V4.5z"/>
        </symbol>
        <symbol id="file-icon-default" aria-label="Unknown File Type" viewBox="0 0 16 16">
            <path d="M14 4.5V14a2 2 0 0 1-2 2H4a2 2 0 0 1-2-2V2a2 2 0 0 1 2-2h5.5zm-3 0A1.5 1.5 0 0 1 9.5 3V1H4a1 1 0 0 0-1 1v12a1 1 0 0 0 1 1h8a1 1 0 0 0 1-1V4.5z"/>
        </symbol>
    </defs>
    <!--
    <use href="#file-icon-text" x="0" y="0" width="16" height="16"/>
    <use href="#file-icon-rtf" x="0" y="20" width="16" height="16"/>
    <use href="#file-icon-csv" x="0" y="40" width="16" height="16"/>
    <use href="#file-icon-excel" x="0" y="60" width="16" height="16"/>
    <use href="#file-icon-word" x="0" y="80" width="16" height="16"/>
    <use href="#file-icon-pdf" x="0" y="100" width="16" height="16"/>
    <use href="#file-icon-image" x="0" y="120" width="16" height="16"/>
    <use href="#file-icon-html" x="0" y="140" width="16" height="16"/>
    <use href="#file-icon-powerpoint" x="0" y="160" width="16" height="16"/>
    <use href="#file-icon-default" x="0" y="180" width="16" height="16"/>
    -->
</svg>
