<?xml version="1.0" encoding="UTF-8" standalone="no"?>
<svg
    version="1.0"
    width="750.00006"
    height="599.99994"
    viewBox="0 0 750 600"
    preserveAspectRatio="xMidYMid meet"
    id="svg3978"
    xmlns="http://www.w3.org/2000/svg">
  <defs
      id="defs3980" />
  <g
      transform="matrix(0.99995823,0,0,1.0000467,0.01568949,99.9884)"
      id="layer3"
      style="display:inline" />
  <g
      transform="matrix(0.99995823,0,0,1.0000467,0.01568645,-0.01403134)"
      id="g2901"
      style="display:inline">
    <rect
        width="748.68964"
        height="598.63031"
        rx="34.510597"
        ry="27.593618"
        x="0.65518832"
        y="0.68484676"
        id="rect3990"
        style="fill:#000000;fill-opacity:1;stroke:#000000;stroke-width:1.34169;stroke-opacity:1" />
    <path
        d="m 102.16536,519.28445 c 0,0 -19.271626,-43.68819 -5.912097,-94.58791 C 92.298625,411.00297 77.449401,364.2556 93.310945,318.85632 97.905171,312.15477 80.854969,289.32707 79.75893,280.87436 75.738998,249.87239 55.77361,68.438418 50.95399,51.855904 c 157.38155,-1.114987 424.90407,-0.881592 424.90407,-0.881592 0,0 -3.13569,21.703064 -4.15023,25.646773 -7.47216,29.045685 10.93122,28.419945 17.20961,28.676415 16.17303,0.66063 9.35945,-0.11265 19.91866,2.0764 10.7758,2.98724 8.72483,8.35723 33.51921,33.85223 23.11242,27.08411 37.80117,28.13912 61.24424,50.76072 40.08917,27.84606 104.09009,73.02564 94.4756,100.4384 -27.23094,58.70633 -44.17436,97.76387 -52.618,156.84265 -4.68147,37.61827 -27.09251,78.19894 -52.02857,77.77307 -19.25866,-0.35596 -11.6365,4.18248 -18.90284,12.50062 -4.23794,4.85136 -10.63019,9.46068 -20.50088,9.50333 -9.45184,0.0409 -16.6959,-1.04555 -22.57729,-8.43382 -8.91687,-11.20147 2.69062,-15.01019 -23.24068,-14.22179 -23.5494,0.71602 -399.44016,2.30199 -399.44016,2.30199"
        id="path1356"
        style="fill:#ffffff;fill-opacity:1;fill-rule:evenodd;stroke:#000000;stroke-width:1.90798px;stroke-linecap:butt;stroke-linejoin:miter;stroke-opacity:1" />
  </g>
  <g
      transform="matrix(0.95973369,0,0,0.95981856,6.47579,5.8643777)"
      id="text2878"
      style="font-style:normal;font-variant:normal;font-weight:normal;font-stretch:normal;font-size:373.13528442px;line-height:125%;font-family:'Roadgeek 2005 Series C';text-align:center;writing-mode:lr-tb;text-anchor:middle;fill:#000000;fill-opacity:1;stroke:none">
    <path
        d="m 250.82951,389.53692 0,60.44791 -35.82098,0 0,-60.44791 -103.73161,0 0,-25.3732 103.73161,-164.17953 35.82098,0 0,155.97055 14.92542,0 0,33.58218 -14.92542,0 m -35.82098,-127.23914 -59.70165,93.65696 59.70165,0 0,-93.65696"
        id="path4343"
        style="font-family:'Roadgeek 2005 Series C';letter-spacing:-10.27397251" />
    <path
        d="m 447.6806,324.61138 c -1.7e-4,19.15438 -1.11957,35.44794 -3.35822,48.88072 -1.99021,13.43293 -5.59719,26.11952 -10.82092,38.0598 -6.21907,14.92543 -14.0549,25.87072 -23.50752,32.8359 -9.20413,6.71644 -20.89569,10.07465 -35.07472,10.07466 -14.92549,-1e-5 -27.11457,-3.35822 -36.56726,-10.07466 -9.20405,-6.96518 -16.91551,-17.91047 -23.13438,-32.8359 -5.22393,-12.18904 -8.95528,-24.87562 -11.19406,-38.0598 -1.99008,-13.43278 -2.98511,-29.72634 -2.98508,-48.88072 -3e-5,-18.90538 0.995,-35.07456 2.98508,-48.50759 2.23878,-13.68144 5.97013,-26.4924 11.19406,-38.43293 6.46763,-14.92519 14.30346,-25.62172 23.50752,-32.08964 9.45269,-6.71618 21.51739,-10.0744 36.19412,-10.07465 14.42779,2.5e-4 26.24373,3.35847 35.44785,10.07465 9.20387,6.46792 16.91532,17.41321 23.13439,32.83591 2.48741,6.21912 4.60184,12.43804 6.3433,18.65676 1.98989,6.21911 3.48243,12.81116 4.47762,19.77617 1.24362,6.7166 2.11427,14.05492 2.61195,22.01498 0.49735,7.71161 0.7461,16.29371 0.74627,25.74634 m -34.32844,0 c -1.4e-4,-6.96506 -0.2489,-13.30836 -0.74627,-19.0299 -0.2489,-5.72126 -0.74641,-10.94515 -1.49255,-15.67168 -0.49764,-4.97498 -1.24391,-9.70135 -2.23881,-14.17915 -0.99515,-4.47744 -2.11456,-8.95506 -3.35822,-13.43287 -3.23396,-11.19385 -7.33844,-19.27844 -12.31346,-24.25379 -4.72649,-4.97492 -10.82103,-7.46249 -18.28363,-7.4627 -15.423,2.1e-4 -25.99516,10.32361 -31.7165,30.97022 -2.98514,9.45294 -5.09957,19.03007 -6.3433,28.73142 -0.99508,9.45291 -1.4926,21.14447 -1.49254,35.07472 -6e-5,6.71655 0.12432,12.93547 0.37314,18.65676 0.49745,5.47275 0.99497,10.69664 1.49254,15.67168 0.74621,4.72647 1.61686,9.45285 2.61194,14.17914 0.99497,4.72646 2.11437,9.57721 3.35822,14.55228 5.72134,20.64686 16.2935,30.97026 31.7165,30.97023 7.4626,3e-5 13.55714,-2.48754 18.28363,-7.46271 4.97502,-4.97509 9.0795,-12.81092 12.31346,-23.50752 1.49242,-4.97507 2.7362,-9.70145 3.73136,-14.17914 0.99489,-4.7263 1.74116,-9.57705 2.23881,-14.55228 0.74614,-4.97504 1.24365,-10.19893 1.49254,-15.67168 0.24862,-5.72129 0.373,-12.18897 0.37314,-19.40303"
        id="path4345"
        style="font-family:'Roadgeek 2005 Series C';letter-spacing:-10.27397251" />
    <path
        d="m 607.78954,389.53692 0,60.44791 -35.82099,0 0,-60.44791 -103.73161,0 0,-25.3732 103.73161,-164.17953 35.82099,0 0,155.97055 14.92541,0 0,33.58218 -14.92541,0 m -35.82099,-127.23914 -59.70165,93.65696 59.70165,0 0,-93.65696"
        id="path4347"
        style="font-family:'Roadgeek 2005 Series C';letter-spacing:-10.27397251" />
  </g>
  <g
      aria-label="Image Not Found"
      transform="scale(1.032224,0.96878197)"
      id="text186"
      style="font-size:72.2561px;line-height:1.25;font-family:'Roadgeek 2005 Mittelschrift';-inkscape-font-specification:'Roadgeek 2005 Mittelschrift';stroke-width:1.129">
    <path
        d="m 109.16325,518.91156 v -48.33933 h 7.29786 v 48.33933 z"
        id="path292" />
    <path
        d="m 126.50471,518.91156 v -34.39391 h 6.93659 v 3.68507 h 0.14451 q 3.25153,-4.1186 8.95976,-4.1186 3.6128,0 5.70823,1.30061 2.09543,1.30061 3.97409,3.17927 4.11859,-4.47988 10.91067,-4.47988 3.97408,0 7.7314,3.10701 3.75732,3.03476 3.75732,8.8875 v 22.83293 h -6.93659 v -20.44848 q 0,-3.54055 -2.02317,-5.49146 -1.95091,-1.95092 -4.7689,-1.95092 -3.03476,0 -4.98567,1.95092 -1.87866,1.95091 -1.87866,5.49146 v 20.44848 h -6.93659 v -20.44848 q 0,-3.54055 -2.02317,-5.49146 -1.95091,-1.95092 -4.7689,-1.95092 -3.03476,0 -4.98567,1.95092 -1.87866,1.95091 -1.87866,5.49146 v 20.44848 z"
        id="path294" />
    <path
        d="m 202.22911,519.05607 v -3.03475 h -0.14451 q -0.93933,1.8064 -2.81799,2.60122 -2.02317,0.86707 -5.41921,0.86707 -5.70823,-0.14451 -8.59847,-3.10701 -3.17927,-2.89025 -3.17927,-7.37013 0,-4.40762 2.74573,-7.29786 2.74573,-2.9625 8.09268,-2.9625 h 9.32104 v -3.68506 q 0.0723,-4.55214 -6.86433,-4.40763 -2.38445,0 -3.90183,0.5058 -1.58963,0.6503 -2.38445,2.16768 l -5.34695,-4.19085 q 3.90183,-5.20244 11.27195,-5.05793 6.35854,-0.0723 10.18811,2.45671 3.68506,2.67347 3.75732,8.8875 v 23.62774 z m 0,-12.13902 v -2.45671 h -8.02043 q -5.925,0.14451 -5.85274,4.19085 0,1.66189 1.51738,2.9625 1.51737,1.37287 4.84116,1.37287 4.26311,0.0723 5.99725,-1.08384 1.51738,-1.08384 1.51738,-4.98567 z"
        id="path296" />
    <path
        d="m 236.04494,518.91156 v -3.54055 q -3.68506,3.97409 -8.8875,3.97409 -3.39603,0 -5.70823,-1.30061 -2.23994,-1.37287 -3.39604,-2.89025 -1.51737,-1.87866 -2.09542,-4.04634 -0.5058,-2.16768 -0.5058,-9.32104 0,-7.22561 0.5058,-9.32103 0.57805,-2.16769 2.09542,-4.1186 1.1561,-1.51738 3.39604,-2.89025 2.3122,-1.37286 5.70823,-1.37286 5.05793,0 8.8875,4.1186 v -3.68507 h 6.93659 V 518.189 q 0,7.7314 -4.55213,11.41646 -4.55214,3.68506 -10.40488,3.68506 -3.32378,0 -6.50305,-1.58963 -3.17927,-1.58963 -5.41921,-4.19085 l 5.34695,-4.33537 q 1.22835,1.30061 2.9625,2.23994 1.8064,0.93933 3.75732,0.93933 3.46829,0 5.63597,-1.95092 2.23994,-1.87865 2.23994,-5.49146 z m -13.6564,-17.1247 q 0,4.1186 0.21677,5.49147 0.21677,1.37286 1.1561,2.52896 0.6503,0.86707 2.02317,1.8064 1.37286,0.86708 3.46829,0.86708 2.02317,0 3.32378,-0.86708 1.37287,-0.93933 2.09543,-1.8064 0.93933,-1.1561 1.1561,-2.52896 0.21676,-1.37287 0.21676,-5.49147 0,-4.19085 -0.21676,-5.56372 -0.21677,-1.37286 -1.1561,-2.52896 -0.72256,-0.86707 -2.09543,-1.73415 -1.30061,-0.93933 -3.32378,-0.93933 -2.09543,0 -3.46829,0.93933 -1.37287,0.86708 -2.02317,1.73415 -0.93933,1.1561 -1.1561,2.52896 -0.21677,1.37287 -0.21677,5.56372 z"
        id="path298" />
    <path
        d="m 278.60385,504.38808 h -21.38781 q 0,4.19086 2.23994,6.35854 2.3122,2.09543 5.925,2.09543 4.33537,0 7.58689,-3.32378 l 4.98568,4.26311 q -2.52897,3.03475 -5.78049,4.33536 -3.17927,1.22836 -6.64756,1.22836 -5.34696,0 -10.33263,-3.39604 -4.91341,-3.46829 -4.91341,-14.08994 0,-10.0436 4.55213,-13.87317 4.62439,-3.90183 9.61006,-3.90183 5.63598,0 9.89909,3.97408 4.26311,3.90183 4.26311,10.62165 z m -21.38781,-5.70823 h 14.52348 q -0.21677,-3.90183 -2.23994,-5.925 -1.95091,-2.09543 -5.05793,-2.09543 -3.03475,0 -5.13018,2.09543 -2.02317,2.02317 -2.09543,5.925 z"
        id="path300" />
    <path
        d="m 302.95419,518.91156 v -48.33933 h 6.93658 l 21.8936,34.3939 v 0 -34.3939 h 7.44238 v 48.33933 h -6.93659 l -21.89359,-34.32165 h -0.14452 v 34.32165 z"
        id="path302" />
    <path
        d="m 347.17486,501.71461 q 0,-5.56372 0.79482,-8.30945 0.86707,-2.74574 2.89024,-4.91342 1.44512,-1.51738 3.90183,-2.9625 2.52896,-1.44512 6.5753,-1.44512 4.04635,0 6.50305,1.44512 2.52897,1.44512 3.97409,2.9625 1.95091,2.16768 2.81799,4.91342 0.86707,2.74573 0.86707,8.30945 0,5.63597 -0.86707,8.38171 -0.86708,2.67347 -2.81799,4.84115 -1.44512,1.58964 -3.97409,3.03476 -2.4567,1.37287 -6.50305,1.37287 -4.04634,0 -6.5753,-1.37287 -2.45671,-1.44512 -3.90183,-3.03476 -2.02317,-2.16768 -2.89024,-4.84115 -0.79482,-2.74574 -0.79482,-8.38171 z m 21.46006,0.0722 q 0,-3.82957 -0.36128,-5.34695 -0.36128,-1.51738 -1.37287,-2.89024 -1.8064,-2.52897 -5.56372,-2.52897 -3.82957,0 -5.56371,2.52897 -1.01159,1.37286 -1.37287,2.89024 -0.28903,1.51738 -0.28903,5.2747 0,3.75731 0.28903,5.34695 0.36128,1.51738 1.37287,2.89024 1.73414,2.52897 5.56371,2.52897 3.75732,0 5.56372,-2.52897 1.01159,-1.37286 1.37287,-2.89024 0.36128,-1.51738 0.36128,-5.2747 z"
        id="path304" />
    <path
        d="m 383.30295,484.51765 v -10.47713 h 6.93659 v 10.47713 h 4.98567 v 5.2747 h -4.98567 v 20.0872 q 0,2.60122 2.45671,2.60122 h 2.52896 v 6.43079 h -3.6128 q -3.54055,0 -5.925,-2.16768 -2.38446,-2.16769 -2.38446,-6.28628 v -20.66525 h -3.46829 v -5.2747 z"
        id="path306" />
    <path
        d="m 418.78065,518.91156 v -48.33933 h 30.92561 v 6.93658 h -23.62775 v 14.30671 h 20.0872 v 6.50305 h -20.0872 v 20.59299 z"
        id="path308" />
    <path
        d="m 452.95771,501.71461 q 0,-5.56372 0.79482,-8.30945 0.86707,-2.74574 2.89024,-4.91342 1.44512,-1.51738 3.90183,-2.9625 2.52897,-1.44512 6.57531,-1.44512 4.04634,0 6.50305,1.44512 2.52896,1.44512 3.97408,2.9625 1.95092,2.16768 2.81799,4.91342 0.86707,2.74573 0.86707,8.30945 0,5.63597 -0.86707,8.38171 -0.86707,2.67347 -2.81799,4.84115 -1.44512,1.58964 -3.97408,3.03476 -2.45671,1.37287 -6.50305,1.37287 -4.04634,0 -6.57531,-1.37287 -2.45671,-1.44512 -3.90183,-3.03476 -2.02317,-2.16768 -2.89024,-4.84115 -0.79482,-2.74574 -0.79482,-8.38171 z m 21.46006,0.0722 q 0,-3.82957 -0.36128,-5.34695 -0.36128,-1.51738 -1.37286,-2.89024 -1.80641,-2.52897 -5.56372,-2.52897 -3.82958,0 -5.56372,2.52897 -1.01159,1.37286 -1.37287,2.89024 -0.28902,1.51738 -0.28902,5.2747 0,3.75731 0.28902,5.34695 0.36128,1.51738 1.37287,2.89024 1.73414,2.52897 5.56372,2.52897 3.75731,0 5.56372,-2.52897 1.01158,-1.37286 1.37286,-2.89024 0.36128,-1.51738 0.36128,-5.2747 z"
        id="path310" />
    <path
        d="m 488.65229,507.42284 v -22.90519 h 6.93658 v 20.52074 q 0,3.54055 1.95092,5.49146 1.95091,1.95092 4.91341,1.95092 2.89025,0 4.84116,-1.95092 1.95092,-1.95091 1.95092,-5.49146 v -20.52074 h 6.93658 v 34.39391 h -6.93658 v -3.61281 h -0.14452 q -3.25152,4.04635 -8.8875,4.04635 -4.04634,0 -7.80366,-3.03476 -3.75731,-3.03476 -3.75731,-8.8875 z"
        id="path312" />
    <path
        d="m 525.14154,518.91156 v -34.39391 h 6.93659 v 3.68507 h 0.14451 q 3.17927,-4.1186 8.95976,-4.1186 4.04634,0 7.7314,3.10701 3.75732,3.03476 3.75732,8.8875 v 22.83293 h -6.93659 v -20.44848 q 0,-3.54055 -1.95091,-5.49146 -1.95092,-1.95092 -4.84116,-1.95092 -2.9625,0 -4.91342,1.95092 -1.95091,1.95091 -1.95091,5.49146 v 20.44848 z"
        id="path314" />
    <path
        d="m 582.22382,518.91156 v -3.54055 q -3.68506,3.97409 -8.8875,3.97409 -3.17927,0 -5.49146,-1.22836 -2.23994,-1.22835 -3.75732,-3.25152 -1.44512,-1.8064 -1.95092,-4.33537 -0.50579,-2.52896 -0.50579,-8.81524 0,-6.35854 0.50579,-8.81525 0.5058,-2.4567 1.95092,-4.33536 1.51738,-1.95092 3.75732,-3.17927 2.31219,-1.30061 5.49146,-1.30061 2.67348,0 4.7689,1.1561 2.16769,1.08384 4.1186,2.9625 v -17.63049 h 6.93659 v 48.33933 z m -6.79207,-27.89086 q -4.91342,0 -5.925,3.32378 -0.93933,3.32379 -0.93933,7.37013 0,3.97408 0.93933,7.37012 1.01158,3.39604 5.925,3.39604 4.84116,0 5.78049,-3.4683 1.01158,-3.54055 1.01158,-7.29786 0,-3.75732 -1.01158,-7.22561 -0.93933,-3.4683 -5.78049,-3.4683 z"
        id="path316" />
  </g>
</svg>
